<svg xmlns="http://www.w3.org/2000/svg" width="24" height="24" viewBox="0 0 24 24">
  <g id="favicon" transform="translate(-110 -1046)">
    <circle id="Ellipse_12" data-name="Ellipse 12" cx="12" cy="12" r="12" transform="translate(110 1046)" fill="#fff"/>
    <path id="Subtraction_1" data-name="Subtraction 1" d="M11.864,24a11.674,11.674,0,0,1-4.618-.943,11.817,11.817,0,0,1-3.771-2.572A12.107,12.107,0,0,1,2.159,5.1L7.712,19.727l15.918-6.18a12.028,12.028,0,0,1-3.9,7.438A11.742,11.742,0,0,1,11.864,24Zm.726-12.818h0L8.528.481a11.775,11.775,0,0,1,9.927,1.54,11.976,11.976,0,0,1,4.3,5.214L12.589,11.182Z" transform="translate(110 1046)" fill="#00d563"/>
  </g>
</svg>
