<svg xmlns="http://www.w3.org/2000/svg" width="372.608" height="82.664" viewBox="0 0 372.608 82.664">
  <g id="logo-landsoft" transform="translate(-146.702 -161.336)">
    <path id="Path_351" data-name="Path 351" d="M2.736,19.015V-25.167H10.82V12.372H31.438v6.643Zm68.184,0L66.47,8.675h-21.5l-4.449,10.34H32.378L52.37-25.167h6.58L78.941,19.015ZM47.607,2.408H63.775l-8.084-18.8Zm65.74-27.574h7.583V19.015h-6.079L91.162-11.818V19.015h-7.52V-25.167h6.016L113.347,5.6Zm17.109,0h16.294q10.842,0,16.827,5.8T169.56-3.107q0,10.466-5.985,16.294t-16.827,5.828H130.455Zm15.793,37.6q15.229,0,15.229-15.542,0-15.479-15.229-15.479h-7.708V12.435Zm46.187,7.082q-10.34,0-16.545-5.578L177.9,9.991a21.193,21.193,0,0,0,6.674,3.948,24.064,24.064,0,0,0,7.928,1.191q5.327,0,8.21-2.068a6.755,6.755,0,0,0,2.883-5.828,4.833,4.833,0,0,0-1.379-3.572,9.715,9.715,0,0,0-3.635-2.193A54.578,54.578,0,0,0,192.5-.224a59.25,59.25,0,0,1-8.429-2.507,13.122,13.122,0,0,1-5.327-3.76,9.655,9.655,0,0,1-2.037-6.392,11.619,11.619,0,0,1,1.974-6.674,12.759,12.759,0,0,1,5.64-4.512,21.089,21.089,0,0,1,8.492-1.6,24.93,24.93,0,0,1,8.554,1.441A18.5,18.5,0,0,1,208.1-20.09l-1.943,3.948a21.526,21.526,0,0,0-6.361-3.917,19.573,19.573,0,0,0-6.988-1.222q-5.139,0-8.053,2.162a7.1,7.1,0,0,0-2.914,6.048,5.614,5.614,0,0,0,2.569,5.014,24.5,24.5,0,0,0,7.771,2.883q5.7,1.379,8.962,2.538A13.417,13.417,0,0,1,206.566.841a8.733,8.733,0,0,1,2.162,6.2,11.184,11.184,0,0,1-1.974,6.58,12.6,12.6,0,0,1-5.672,4.355A22.437,22.437,0,0,1,192.435,19.516Zm43.116,0a20.192,20.192,0,0,1-10.685-2.757,18.1,18.1,0,0,1-6.988-7.834,27.326,27.326,0,0,1-2.444-11.97,28,28,0,0,1,2.413-12.064,17.679,17.679,0,0,1,6.956-7.834,20.5,20.5,0,0,1,10.748-2.726A20.5,20.5,0,0,1,246.3-22.942a17.679,17.679,0,0,1,6.956,7.834,27.838,27.838,0,0,1,2.413,12,27.533,27.533,0,0,1-2.444,12,18.066,18.066,0,0,1-6.988,7.865A20.192,20.192,0,0,1,235.551,19.516Zm0-4.387q7.019,0,10.936-4.731T250.4-3.107q0-8.774-3.885-13.474t-10.967-4.7q-7.019,0-10.936,4.731T220.7-3.107q0,8.711,3.917,13.474T235.551,15.129Zm29.392,3.885V-25.167h27.324v4.324H270.019V-5.614h20.994V-1.29H270.019v20.3Zm45.686,0V-20.78H295.274v-4.387h35.972v4.387H315.83V19.015Z" transform="translate(188.064 209.146)" fill="#00d563"/>
    <path id="Polygon_1" data-name="Polygon 1" d="M28.74,4.468a3,3,0,0,1,5.189,0l26.123,44.99a3,3,0,0,1-2.594,4.506H5.211a3,3,0,0,1-2.594-4.506Z" transform="matrix(0.629, -0.777, 0.777, 0.629, 146.702, 210.039)" fill="#57f3a0"/>
    <path id="Path_266" data-name="Path 266" d="M2.736,19.015V-25.167H10.82V12.372H31.438v6.643Zm68.184,0L66.47,8.675h-21.5l-4.449,10.34H32.378L52.37-25.167h6.58L78.941,19.015ZM47.607,2.408H63.775l-8.084-18.8Zm65.74-27.574h7.583V19.015h-6.079L91.162-11.818V19.015h-7.52V-25.167h6.016L113.347,5.6Zm17.109,0h16.294q10.842,0,16.827,5.8T169.56-3.107q0,10.466-5.985,16.294t-16.827,5.828H130.455Zm15.793,37.6q15.229,0,15.229-15.542,0-15.479-15.229-15.479h-7.708V12.435Zm46.187,7.082q-10.34,0-16.545-5.578L177.9,9.991a21.193,21.193,0,0,0,6.674,3.948,24.064,24.064,0,0,0,7.928,1.191q5.327,0,8.21-2.068a6.755,6.755,0,0,0,2.883-5.828,4.833,4.833,0,0,0-1.379-3.572,9.715,9.715,0,0,0-3.635-2.193A54.578,54.578,0,0,0,192.5-.224a59.25,59.25,0,0,1-8.429-2.507,13.122,13.122,0,0,1-5.327-3.76,9.655,9.655,0,0,1-2.037-6.392,11.619,11.619,0,0,1,1.974-6.674,12.759,12.759,0,0,1,5.64-4.512,21.089,21.089,0,0,1,8.492-1.6,24.93,24.93,0,0,1,8.554,1.441A18.5,18.5,0,0,1,208.1-20.09l-1.943,3.948a21.526,21.526,0,0,0-6.361-3.917,19.573,19.573,0,0,0-6.988-1.222q-5.139,0-8.053,2.162a7.1,7.1,0,0,0-2.914,6.048,5.614,5.614,0,0,0,2.569,5.014,24.5,24.5,0,0,0,7.771,2.883q5.7,1.379,8.962,2.538A13.417,13.417,0,0,1,206.566.841a8.733,8.733,0,0,1,2.162,6.2,11.184,11.184,0,0,1-1.974,6.58,12.6,12.6,0,0,1-5.672,4.355A22.437,22.437,0,0,1,192.435,19.516Zm43.116,0a20.192,20.192,0,0,1-10.685-2.757,18.1,18.1,0,0,1-6.988-7.834,27.326,27.326,0,0,1-2.444-11.97,28,28,0,0,1,2.413-12.064,17.679,17.679,0,0,1,6.956-7.834,20.5,20.5,0,0,1,10.748-2.726A20.5,20.5,0,0,1,246.3-22.942a17.679,17.679,0,0,1,6.956,7.834,27.838,27.838,0,0,1,2.413,12,27.533,27.533,0,0,1-2.444,12,18.066,18.066,0,0,1-6.988,7.865A20.192,20.192,0,0,1,235.551,19.516Zm0-4.387q7.019,0,10.936-4.731T250.4-3.107q0-8.774-3.885-13.474t-10.967-4.7q-7.019,0-10.936,4.731T220.7-3.107q0,8.711,3.917,13.474T235.551,15.129Zm29.392,3.885V-25.167h27.324v4.324H270.019V-5.614h20.994V-1.29H270.019v20.3Zm45.686,0V-20.78H295.274v-4.387h35.972v4.387H315.83V19.015Z" transform="translate(184.064 206.146)" fill="#040404"/>
  </g>
</svg>
