<svg xmlns="http://www.w3.org/2000/svg" width="100" height="22.426" viewBox="0 0 100 22.426">
  <g id="logo-landsoft" transform="translate(-146.702 -161.336)">
    <path id="Polygon_1" data-name="Polygon 1" d="M5.906,4.468a3,3,0,0,1,5.189,0l3.29,5.666a3,3,0,0,1-2.594,4.506H5.211a3,3,0,0,1-2.594-4.506Z" transform="matrix(0.629, -0.777, 0.777, 0.629, 146.702, 174.549)" fill="#57f3a0"/>
    <path id="Path_266" data-name="Path 266" d="M2.736-13.546V-25.532H4.929v10.184h5.593v1.8Zm18.5,0-1.207-2.805H14.2l-1.207,2.805h-2.21L16.2-25.532h1.785L23.41-13.546Zm-6.325-4.505H19.3l-2.193-5.1Zm17.835-7.481H34.8v11.986H33.152l-6.427-8.365v8.365h-2.04V-25.532h1.632l6.427,8.348Zm4.641,0h4.42a6.29,6.29,0,0,1,4.565,1.573,5.857,5.857,0,0,1,1.624,4.412,5.885,5.885,0,0,1-1.624,4.42,6.27,6.27,0,0,1-4.565,1.581h-4.42Zm4.284,10.2q4.131,0,4.131-4.216,0-4.2-4.131-4.2H39.578v8.416ZM54.2-13.41a6.461,6.461,0,0,1-4.488-1.513l.544-1.071a5.749,5.749,0,0,0,1.811,1.071,6.528,6.528,0,0,0,2.151.323,3.781,3.781,0,0,0,2.227-.561,1.833,1.833,0,0,0,.782-1.581,1.311,1.311,0,0,0-.374-.969,2.635,2.635,0,0,0-.986-.6,14.806,14.806,0,0,0-1.649-.459,16.074,16.074,0,0,1-2.287-.68,3.56,3.56,0,0,1-1.445-1.02,2.619,2.619,0,0,1-.553-1.734,3.152,3.152,0,0,1,.536-1.811A3.461,3.461,0,0,1,52-25.234a5.721,5.721,0,0,1,2.3-.434,6.763,6.763,0,0,1,2.321.391,5.02,5.02,0,0,1,1.828,1.122l-.527,1.071A5.84,5.84,0,0,0,56.2-24.146a5.31,5.31,0,0,0-1.9-.332,3.6,3.6,0,0,0-2.185.587,1.926,1.926,0,0,0-.791,1.641,1.523,1.523,0,0,0,.7,1.36,6.646,6.646,0,0,0,2.108.782q1.547.374,2.431.689a3.64,3.64,0,0,1,1.471.944,2.369,2.369,0,0,1,.587,1.683,3.034,3.034,0,0,1-.536,1.785,3.418,3.418,0,0,1-1.539,1.182A6.087,6.087,0,0,1,54.2-13.41Zm11.7,0a5.478,5.478,0,0,1-2.9-.748,4.91,4.91,0,0,1-1.9-2.125,7.413,7.413,0,0,1-.663-3.247,7.6,7.6,0,0,1,.655-3.273,4.8,4.8,0,0,1,1.887-2.125,5.561,5.561,0,0,1,2.916-.74,5.561,5.561,0,0,1,2.916.74A4.8,4.8,0,0,1,70.7-22.8a7.552,7.552,0,0,1,.655,3.256,7.47,7.47,0,0,1-.663,3.256,4.9,4.9,0,0,1-1.9,2.134A5.478,5.478,0,0,1,65.9-13.41Zm0-1.19a3.639,3.639,0,0,0,2.967-1.284,5.6,5.6,0,0,0,1.063-3.664A5.6,5.6,0,0,0,68.872-23.2,3.644,3.644,0,0,0,65.9-24.478a3.639,3.639,0,0,0-2.967,1.284,5.573,5.573,0,0,0-1.063,3.647,5.609,5.609,0,0,0,1.063,3.655A3.628,3.628,0,0,0,65.9-14.6Zm7.974,1.054V-25.532h7.413v1.173H75.247v4.131h5.7v1.173h-5.7v5.508Zm12.394,0v-10.8H82.1v-1.19h9.759v1.19H87.676v10.8Z" transform="translate(154.844 192.197)" fill="#040404"/>
  </g>
</svg>
